<svg xmlns="http://www.w3.org/2000/svg" viewBox="0 0 32 32">
  <defs>
    <linearGradient id="grad" x1="0%" y1="0%" x2="100%" y2="100%">
      <stop offset="0%" style="stop-color:#065f46"/>
      <stop offset="50%" style="stop-color:#047857"/>
      <stop offset="100%" style="stop-color:#10b981"/>
    </linearGradient>
  </defs>
  <rect width="32" height="32" rx="8" fill="url(#grad)"/>
  <path d="M16 6c-2.5 0-4.5 1.5-5.5 3.5C9 10 8 11.5 8 13.5c0 3 2.5 5.5 5.5 5.5.5 0 1-.1 1.5-.2v4.2c0 .6.4 1 1 1s1-.4 1-1v-4.2c.5.1 1 .2 1.5.2 3 0 5.5-2.5 5.5-5.5 0-2-1-3.5-2.5-4C20.5 7.5 18.5 6 16 6z" fill="white" opacity="0.95"/>
  <circle cx="12" cy="12" r="1.5" fill="white" opacity="0.6"/>
  <circle cx="20" cy="14" r="1" fill="white" opacity="0.6"/>
</svg>
